<?xml version="1.0" encoding="UTF-8" standalone="no"?>
<svg width="25px" height="23px" viewBox="0 0 25 23" version="1.1" xmlns="http://www.w3.org/2000/svg" xmlns:xlink="http://www.w3.org/1999/xlink">
    <!-- Generator: Sketch 41 (35326) - http://www.bohemiancoding.com/sketch -->
    <title>Strategy</title>
    <desc>Created with Sketch.</desc>
    <defs>
        <radialGradient cx="50%" cy="50%" fx="50%" fy="50%" r="50%" id="radialGradient-1">
            <stop stop-color="#2A93D8" offset="0%"></stop>
            <stop stop-color="#227FBB" offset="100%"></stop>
        </radialGradient>
    </defs>
    <g id="Page-1" stroke="none" stroke-width="1" fill="none" fill-rule="evenodd">
        <g id="Mobile-Portrait" transform="translate(-24.000000, -1267.000000)">
            <g id="#work" transform="translate(-115.000000, 1149.000000)">
                <g id="agreement" transform="translate(139.156250, 118.175644)">
                    <g id="Strategy">
                        <g id="partnership">
                            <path d="M24.4,11.3222174 C24.4,17.57531 18.9378789,22.6444347 12.2,22.6444347 C5.46212109,22.6444347 0,17.57531 0,11.3222174 C0,11.0725979 0.00872109375,10.8248801 0.0258296875,10.5793295 C0.146495312,8.8506127 2.50133359,9.48562988 3.36529375,8.05456352 C4.0847125,6.86281169 3.21350859,3.54606541 4.33033281,2.67022998 C6.45470547,1.00427184 9.20099219,0 12.2,0 C15.1990078,0 17.9452469,1.00422761 20.0695719,2.67014152 C21.16395,3.52833022 20.0927328,6.75931954 20.8065758,7.92188129 C21.6513305,9.29757492 24.1948398,8.65632168 24.3523914,10.3150265 C24.3838922,10.6468206 24.4,10.982772 24.4,11.3222174 L24.4,11.3222174 Z" id="Shape" fill="url(#radialGradient-1)"></path>
                            <path d="M24.3614461,10.4199782 C24.2196211,8.75083566 23.6873961,7.18385847 22.8500758,5.79679838 C22.1306094,4.60504655 21.1858242,3.54655191 20.069,2.67071648 L15.4691711,6.93959047 L21.7931078,12.808568 L24.361875,10.4246221 C24.3617797,10.4230741 24.3615891,10.4215261 24.3614461,10.4199782 L24.3614461,10.4199782 Z" id="Shape" fill="#33495F"></path>
                            <path d="M18.5439047,9.79314307 L21.7903914,12.8060913 L24.3614461,10.4200224 C24.2196211,8.75087989 23.6873961,7.1839027 22.8500758,5.79684261 L20.7900391,7.70870516 L18.5439047,9.79314307 L18.5439047,9.79314307 Z" id="Shape" fill="#2B3E51"></path>
                            <path d="M4.33095234,2.6707607 C3.21412813,3.54655191 2.26934297,4.60504655 1.54992422,5.79684261 C0.712603906,7.1839027 0.180378906,8.75087989 0.0385539063,10.4200666 L2.60956094,12.8060913 L4.75390156,10.8160789 L5.85609531,9.7931873 L8.93082891,6.93967893 L4.33095234,2.6707607 L4.33095234,2.6707607 Z" id="Shape" fill="#95A5A6"></path>
                            <path d="M0.0385539063,10.4200224 L2.60956094,12.806047 L4.75390156,10.8160346 L5.85609531,9.79314307 L1.54992422,5.79684261 C0.712603906,7.1839027 0.180378906,8.75087989 0.0385539063,10.4200224 L0.0385539063,10.4200224 Z" id="Shape" fill="#7F8C8D"></path>
                            <rect id="Rectangle-path" fill="#D55400" transform="translate(14.946826, 13.303778) rotate(-45.000000) translate(-14.946826, -13.303778) " x="11.1344101" y="9.83198135" width="7.62483156" height="6.94359281"></rect>
                            <path d="M6.28643125,17.6820749 C6.65710156,18.0260757 7.26367031,18.0260757 7.63434062,17.6820749 L11.0378547,14.5234417 C11.408525,14.1794408 11.408525,13.6165143 11.0378547,13.2725135 L11.0378547,13.2725135 C10.6671844,12.9285127 10.0606156,12.9285127 9.68994531,13.2725135 L6.28643125,16.4311468 C5.91576094,16.7751034 5.91576094,17.3380741 6.28643125,17.6820749 L6.28643125,17.6820749 L6.28643125,17.6820749 Z" id="Shape" fill="#D55400"></path>
                            <path d="M7.09520547,19.746124 C7.50295234,20.1245337 8.1701875,20.1245337 8.57788672,19.746124 L13.2956172,15.3678314 C13.7034117,14.9894217 13.7034117,14.3701937 13.2956172,13.9918282 L13.2956172,13.9918282 C12.8878703,13.6134184 12.2206352,13.6134184 11.8129359,13.9918282 L7.09520547,18.3701208 C6.68741094,18.7484863 6.68745859,19.3677143 7.09520547,19.746124 L7.09520547,19.746124 L7.09520547,19.746124 Z" id="Shape" fill="#D55400"></path>
                            <path d="M9.08337656,20.5905137 C9.41701797,20.9001056 9.96292031,20.9001056 10.2965141,20.5905137 L14.3403375,16.8376852 C14.6739313,16.5280933 14.6739313,16.0214241 14.3403375,15.7118322 L14.3403375,15.7118322 C14.0066961,15.4022403 13.4607938,15.4022403 13.1272,15.7118322 L9.08337656,19.4646608 C8.74978281,19.7742526 8.74978281,20.2809219 9.08337656,20.5905137 L9.08337656,20.5905137 L9.08337656,20.5905137 Z" id="Shape" fill="#D55400"></path>
                            <path d="M11.1052406,20.9032458 C11.3647289,21.144064 11.7892984,21.144064 12.0487867,20.9032458 L15.5196867,17.6820749 C15.779175,17.4412567 15.779175,17.0472347 15.5196867,16.8064164 L15.5196867,16.8064164 C15.2602461,16.5655982 14.8356289,16.5655982 14.5761406,16.8064164 L11.1052406,20.0275873 C10.8458,20.2683613 10.8458,20.6624275 11.1052406,20.9032458 L11.1052406,20.9032458 L11.1052406,20.9032458 Z" id="Shape" fill="#D55400"></path>
                            <rect id="Rectangle-path" fill="#ECF0F1" transform="translate(18.058276, 10.437011) rotate(-45.000000) translate(-18.058276, -10.437011) " x="17.2242995" y="6.64094248" width="1.66795275" height="7.59213735"></rect>
                            <rect id="Rectangle-path" fill="#BDC3C7" transform="translate(19.451714, 11.730160) rotate(-45.000000) translate(-19.451714, -11.730160) " x="18.6177372" y="9.76462472" width="1.66795275" height="3.93107155"></rect>
                            <ellipse id="Oval" fill="#ECF0F1" cx="21.946418" cy="9.91569723" rx="0.975761719" ry="0.905556253"></ellipse>
                            <rect id="Rectangle-path" fill="#F59D00" transform="translate(9.453162, 13.303798) rotate(225.000000) translate(-9.453162, -13.303798) " x="5.64072234" y="9.83200139" width="7.62487922" height="6.94359281"></rect>
                            <path d="M18.1135211,17.6820749 C17.7428508,18.0260757 17.136282,18.0260757 16.7656117,17.6820749 L13.3620977,14.5234417 C12.991475,14.1794408 12.991475,13.6165143 13.3620977,13.2725135 L13.3620977,13.2725135 C13.732768,12.9285127 14.3393844,12.9285127 14.710007,13.2725135 L18.1135211,16.4311468 C18.4841914,16.7751034 18.4841914,17.3380741 18.1135211,17.6820749 L18.1135211,17.6820749 L18.1135211,17.6820749 Z" id="Shape" fill="#F59D00"></path>
                            <path d="M17.3047469,19.746124 C16.897,20.1245337 16.2298125,20.1245337 15.8220656,19.746124 L11.1043352,15.3678314 C10.6965883,14.9894217 10.6965883,14.3701937 11.1043352,13.9918282 L11.1043352,13.9918282 C11.5121297,13.6134184 12.1793172,13.6134184 12.5870641,13.9918282 L17.3047469,18.3701208 C17.7125414,18.7484863 17.7125414,19.3677143 17.3047469,19.746124 L17.3047469,19.746124 L17.3047469,19.746124 Z" id="Shape" fill="#F59D00"></path>
                            <path d="M15.3165758,20.5905137 C14.982982,20.9001056 14.437032,20.9001056 14.1034383,20.5905137 L10.0596625,16.8376852 C9.72606875,16.5280933 9.72606875,16.0214241 10.0596625,15.7118322 L10.0596625,15.7118322 C10.3932562,15.4022403 10.9391586,15.4022403 11.2728,15.7118322 L15.3165758,19.4646608 C15.6501695,19.7742526 15.6501695,20.2809219 15.3165758,20.5905137 L15.3165758,20.5905137 L15.3165758,20.5905137 Z" id="Shape" fill="#F59D00"></path>
                            <path d="M13.2947117,20.9032458 C13.0352711,21.144064 12.6106539,21.144064 12.3511656,20.9032458 L8.88026562,17.6820749 C8.620825,17.4412567 8.620825,17.0472347 8.88026562,16.8064164 L8.88026562,16.8064164 C9.13975391,16.5655982 9.56432344,16.5655982 9.82381172,16.8064164 L13.2947117,20.0275873 C13.5542,20.2683613 13.5542,20.6624275 13.2947117,20.9032458 L13.2947117,20.9032458 L13.2947117,20.9032458 Z" id="Shape" fill="#F59D00"></path>
                            <rect id="Rectangle-path" fill="#ECF0F1" transform="translate(6.341936, 10.437086) rotate(225.000000) translate(-6.341936, -10.437086) " x="5.50795945" y="6.64101694" width="1.66795275" height="7.59213735"></rect>
                            <rect id="Rectangle-path" fill="#BDC3C7" transform="translate(4.948496, 11.730330) rotate(225.000000) translate(-4.948496, -11.730330) " x="4.11451933" y="9.76481653" width="1.66795275" height="3.93102733"></rect>
                            <polygon id="Shape" fill="#E87E04" points="12.3014602 11.0372602 13.2546328 9.96430315 12.3360586 9.11664058 9.58791328 8.51890711"></polygon>
                            <ellipse id="Oval" fill="#ECF0F1" cx="17.4283672" cy="17.0283053" rx="0.71484375" ry="0.663411174"></ellipse>
                            <ellipse id="Oval" fill="#ECF0F1" cx="16.6196406" cy="19.0923544" rx="0.71484375" ry="0.663411174"></ellipse>
                            <ellipse id="Oval" fill="#ECF0F1" cx="14.6651625" cy="19.9680129" rx="0.61953125" ry="0.574956351"></ellipse>
                            <ellipse id="Oval" fill="#ECF0F1" cx="12.7780227" cy="20.4058643" rx="0.4765625" ry="0.442274116"></ellipse>
                            <ellipse id="Oval" fill="#ECF0F1" cx="2.45358203" cy="9.91569723" rx="0.975761719" ry="0.905556253"></ellipse>
                            <path d="M11.0874648,12.8033934 C10.1853797,13.6850668 8.66214297,13.0144908 8.66214297,13.0144908 L12.0638937,9.11664058 L14.8120391,8.51890711 C14.8120867,8.51890711 11.9895977,11.9217642 11.0874648,12.8033934 L11.0874648,12.8033934 Z" id="Shape" fill="#D55400"></path>
                            <path d="M13.9000891,11.3556975 C13.9000891,11.3556975 15.5043414,12.6136136 17.3643648,10.8876388 L19.1091078,12.5068928 C19.1091078,12.5068928 18.1432109,16.0438474 16.7134758,14.7972978 C15.5472797,13.7805096 13.4892922,11.7302152 13.4892922,11.7302152 L13.9000891,11.3556975 L13.9000891,11.3556975 Z" id="Shape" fill="#E87E04"></path>
                        </g>
                    </g>
                </g>
            </g>
        </g>
    </g>
</svg>