<?xml version="1.0" encoding="UTF-8" standalone="no"?>
<svg width="25px" height="24px" viewBox="0 0 25 24" version="1.1" xmlns="http://www.w3.org/2000/svg" xmlns:xlink="http://www.w3.org/1999/xlink">
    <!-- Generator: Sketch 41 (35326) - http://www.bohemiancoding.com/sketch -->
    <title>Strategy</title>
    <desc>Created with Sketch.</desc>
    <defs>
        <radialGradient cx="50%" cy="50%" fx="50%" fy="50%" r="50%" id="radialGradient-1">
            <stop stop-color="#9C56B8" offset="0%"></stop>
            <stop stop-color="#8F3FAF" offset="100%"></stop>
        </radialGradient>
    </defs>
    <g id="Page-1" stroke="none" stroke-width="1" fill="none" fill-rule="evenodd">
        <g id="Mobile-Portrait" transform="translate(-24.000000, -1300.000000)">
            <g id="#work" transform="translate(-115.000000, 1149.000000)">
                <g id="checklist" transform="translate(139.156250, 151.434657)">
                    <g id="Strategy">
                        <g id="checklist">
                            <path d="M24.4,11.3222174 C24.4,17.57531 18.9378789,22.6444347 12.2,22.6444347 C11.4181039,22.6444347 10.6534117,22.5761918 9.91240469,22.4457652 C8.92816016,22.2724822 8.03365234,21.2981081 7.1484375,20.9195657 C6.24477969,20.533195 5.35279766,20.7386314 4.58467422,20.1683189 C1.79006406,18.0935225 0,14.9018956 0,11.3222174 C0,5.06912478 5.46212109,0 12.2,0 C18.9378789,0 24.4,5.06912478 24.4,11.3222174 L24.4,11.3222174 Z" id="Shape" fill="url(#radialGradient-1)"></path>
                            <g id="Group" transform="translate(11.532813, 1.061458)">
                                <path d="M0.6671875,0 L0.6671875,0.26536447 C0.917239844,0.26536447 1.11992187,0.453463651 1.11992187,0.68552488 C1.11992187,0.917586109 0.917239844,1.10568529 0.6671875,1.10568529 L0.6671875,2.78632693 C1.03414062,2.78632693 1.334375,2.50769424 1.334375,2.16714317 L1.334375,0.619183763 C1.334375,0.278632693 1.03414062,0 0.6671875,0 L0.6671875,0 Z" id="Shape" fill="#7F8C8D"></path>
                                <path d="M0.214453125,0.68552488 C0.214453125,0.453463651 0.417135156,0.26536447 0.6671875,0.26536447 L0.6671875,0 C0.300234375,0 0,0.278632693 0,0.619183763 L0,2.16714317 C0,2.50769424 0.300234375,2.78632693 0.6671875,2.78632693 L0.6671875,1.10568529 C0.417135156,1.10568529 0.214453125,0.917586109 0.214453125,0.68552488 L0.214453125,0.68552488 Z" id="Shape" fill="#95A5A6"></path>
                            </g>
                            <path d="M18.6335938,17.7351921 C18.6335938,17.9784428 18.4191406,18.1774662 18.1570313,18.1774662 L6.24296875,18.1774662 C5.98085938,18.1774662 5.76640625,17.9784428 5.76640625,17.7351921 L5.76640625,3.67087516 C5.76640625,3.4276244 5.98085938,3.22860105 6.24296875,3.22860105 L18.1570313,3.22860105 C18.4191406,3.22860105 18.6335938,3.4276244 18.6335938,3.67087516 L18.6335938,17.7351921 L18.6335938,17.7351921 Z" id="Shape" fill="#E94B35"></path>
                            <path d="M14.4875,3.49396552 C14.4875,3.78586643 14.2301562,4.02469446 13.915625,4.02469446 L10.484375,4.02469446 C10.1698437,4.02469446 9.9125,3.78586643 9.9125,3.49396552 L9.9125,3.31705587 C9.9125,3.02515495 10.1698437,2.78632693 10.484375,2.78632693 L13.915625,2.78632693 C14.2301562,2.78632693 14.4875,3.02515495 14.4875,3.31705587 L14.4875,3.49396552 L14.4875,3.49396552 Z" id="Shape" fill="#95A5A6"></path>
                            <path d="M6.9578125,17.4698276 C6.82675781,17.4698276 6.71953125,17.3703159 6.71953125,17.2486905 L6.71953125,4.11314928 C6.71953125,3.9915239 6.82675781,3.89201222 6.9578125,3.89201222 L17.4421875,3.89201222 C17.5732422,3.89201222 17.6804687,3.9915239 17.6804687,4.11314928 L17.6804687,17.2486905 C17.6804687,17.3703159 17.5732422,17.4698276 17.4421875,17.4698276 L6.9578125,17.4698276 L6.9578125,17.4698276 Z" id="Shape" fill="#ECF0F1"></path>
                            <rect id="Rectangle-path" fill="#7F8C8D" x="9.9125" y="3.40551069" width="4.575" height="0.619183763"></rect>
                            <g id="Group" transform="translate(7.720313, 5.749564)">
                                <path d="M2.62109375,1.85755129 C2.62109375,1.93079188 2.55709141,1.99023352 2.478125,1.99023352 L0.61953125,1.99023352 C0.540564844,1.99023352 0.4765625,1.93079188 0.4765625,1.85755129 L0.4765625,0.132682235 C0.4765625,0.0594416412 0.540564844,0 0.61953125,0 L2.478125,0 C2.55709141,0 2.62109375,0.0594416412 2.62109375,0.132682235 L2.62109375,1.85755129 L2.62109375,1.85755129 Z M0.7625,1.72486905 L2.33515625,1.72486905 L2.33515625,0.26536447 L0.7625,0.26536447 L0.7625,1.72486905 L0.7625,1.72486905 Z" id="Shape" fill="#33495F"></path>
                                <path d="M2.62109375,4.51119598 C2.62109375,4.58443658 2.55709141,4.64387822 2.478125,4.64387822 L0.61953125,4.64387822 C0.540564844,4.64387822 0.4765625,4.58443658 0.4765625,4.51119598 L0.4765625,2.78632693 C0.4765625,2.71308634 0.540564844,2.6536447 0.61953125,2.6536447 L2.478125,2.6536447 C2.55709141,2.6536447 2.62109375,2.71308634 2.62109375,2.78632693 L2.62109375,4.51119598 L2.62109375,4.51119598 Z M0.7625,4.37851375 L2.33515625,4.37851375 L2.33515625,2.91900917 L0.7625,2.91900917 L0.7625,4.37851375 L0.7625,4.37851375 Z" id="Shape" fill="#33495F"></path>
                                <path d="M2.62109375,7.16484068 C2.62109375,7.23808127 2.55709141,7.29752292 2.478125,7.29752292 L0.61953125,7.29752292 C0.540564844,7.29752292 0.4765625,7.23808127 0.4765625,7.16484068 L0.4765625,5.43997163 C0.4765625,5.36673103 0.540564844,5.30728939 0.61953125,5.30728939 L2.478125,5.30728939 C2.55709141,5.30728939 2.62109375,5.36673103 2.62109375,5.43997163 L2.62109375,7.16484068 L2.62109375,7.16484068 Z M0.7625,7.03215845 L2.33515625,7.03215845 L2.33515625,5.57265386 L0.7625,5.57265386 L0.7625,7.03215845 L0.7625,7.03215845 Z" id="Shape" fill="#33495F"></path>
                                <path d="M2.62109375,9.81848538 C2.62109375,9.89172597 2.55709141,9.95116761 2.478125,9.95116761 L0.61953125,9.95116761 C0.540564844,9.95116761 0.4765625,9.89172597 0.4765625,9.81848538 L0.4765625,8.09361632 C0.4765625,8.02037573 0.540564844,7.96093409 0.61953125,7.96093409 L2.478125,7.96093409 C2.55709141,7.96093409 2.62109375,8.02037573 2.62109375,8.09361632 L2.62109375,9.81848538 L2.62109375,9.81848538 Z M0.7625,9.68580314 L2.33515625,9.68580314 L2.33515625,8.22629856 L0.7625,8.22629856 L0.7625,9.68580314 L0.7625,9.68580314 Z" id="Shape" fill="#33495F"></path>
                                <path d="M8.4828125,0.353819293 L3.76484375,0.353819293 C3.65957109,0.353819293 3.57421875,0.274607999 3.57421875,0.176909646 C3.57421875,0.0792112942 3.65957109,0 3.76484375,0 L8.4828125,0 C8.58808516,0 8.6734375,0.0792112942 8.6734375,0.176909646 C8.6734375,0.274607999 8.58808516,0.353819293 8.4828125,0.353819293 L8.4828125,0.353819293 Z" id="Shape" fill="#BDC3C7"></path>
                                <path d="M8.72109375,1.23836753 L3.76484375,1.23836753 C3.65957109,1.23836753 3.57421875,1.15915623 3.57421875,1.06145788 C3.57421875,0.963759526 3.65957109,0.884548232 3.76484375,0.884548232 L8.72109375,0.884548232 C8.82636641,0.884548232 8.91171875,0.963759526 8.91171875,1.06145788 C8.91171875,1.15915623 8.82636641,1.23836753 8.72109375,1.23836753 L8.72109375,1.23836753 Z" id="Shape" fill="#BDC3C7"></path>
                                <path d="M8.72109375,3.00746399 L3.76484375,3.00746399 C3.65957109,3.00746399 3.57421875,2.9282527 3.57421875,2.83055434 C3.57421875,2.73285599 3.65957109,2.6536447 3.76484375,2.6536447 L8.72109375,2.6536447 C8.82636641,2.6536447 8.91171875,2.73285599 8.91171875,2.83055434 C8.91171875,2.9282527 8.82636641,3.00746399 8.72109375,3.00746399 L8.72109375,3.00746399 Z" id="Shape" fill="#BDC3C7"></path>
                                <path d="M6.24296875,3.89201222 L3.76484375,3.89201222 C3.65957109,3.89201222 3.57421875,3.81280093 3.57421875,3.71510258 C3.57421875,3.61740422 3.65957109,3.53819293 3.76484375,3.53819293 L6.24296875,3.53819293 C6.34824141,3.53819293 6.43359375,3.61740422 6.43359375,3.71510258 C6.43359375,3.81280093 6.34824141,3.89201222 6.24296875,3.89201222 L6.24296875,3.89201222 Z" id="Shape" fill="#BDC3C7"></path>
                                <path d="M8.4828125,4.73233304 L3.76484375,4.73233304 C3.65957109,4.73233304 3.57421875,4.65312175 3.57421875,4.5554234 C3.57421875,4.45772504 3.65957109,4.37851375 3.76484375,4.37851375 L8.4828125,4.37851375 C8.58808516,4.37851375 8.6734375,4.45772504 8.6734375,4.5554234 C8.6734375,4.65312175 8.58808516,4.73233304 8.4828125,4.73233304 L8.4828125,4.73233304 Z" id="Shape" fill="#BDC3C7"></path>
                                <path d="M7.86328125,5.7053361 L3.76484375,5.7053361 C3.65957109,5.7053361 3.57421875,5.6261248 3.57421875,5.52842645 C3.57421875,5.4307281 3.65957109,5.3515168 3.76484375,5.3515168 L7.86328125,5.3515168 C7.96855391,5.3515168 8.05390625,5.4307281 8.05390625,5.52842645 C8.05390625,5.6261248 7.96855391,5.7053361 7.86328125,5.7053361 L7.86328125,5.7053361 Z" id="Shape" fill="#BDC3C7"></path>
                                <path d="M6.48125,6.54565692 L3.76484375,6.54565692 C3.65957109,6.54565692 3.57421875,6.46644562 3.57421875,6.36874727 C3.57421875,6.27104892 3.65957109,6.19183763 3.76484375,6.19183763 L6.48125,6.19183763 C6.58652266,6.19183763 6.671875,6.27104892 6.671875,6.36874727 C6.671875,6.46644562 6.58652266,6.54565692 6.48125,6.54565692 L6.48125,6.54565692 Z" id="Shape" fill="#BDC3C7"></path>
                                <path d="M8.72109375,7.38597774 L3.76484375,7.38597774 C3.65957109,7.38597774 3.57421875,7.30676644 3.57421875,7.20906809 C3.57421875,7.11136974 3.65957109,7.03215845 3.76484375,7.03215845 L8.72109375,7.03215845 C8.82636641,7.03215845 8.91171875,7.11136974 8.91171875,7.20906809 C8.91171875,7.30676644 8.82636641,7.38597774 8.72109375,7.38597774 L8.72109375,7.38597774 Z" id="Shape" fill="#BDC3C7"></path>
                                <path d="M5.48046875,8.27052597 L3.76484375,8.27052597 C3.65957109,8.27052597 3.57421875,8.19131468 3.57421875,8.09361632 C3.57421875,7.99591797 3.65957109,7.91670668 3.76484375,7.91670668 L5.48046875,7.91670668 C5.58574141,7.91670668 5.67109375,7.99591797 5.67109375,8.09361632 C5.67109375,8.19131468 5.58574141,8.27052597 5.48046875,8.27052597 L5.48046875,8.27052597 Z" id="Shape" fill="#BDC3C7"></path>
                                <path d="M6.1,9.1550742 L3.76484375,9.1550742 C3.65957109,9.1550742 3.57421875,9.07586291 3.57421875,8.97816456 C3.57421875,8.8804662 3.65957109,8.80125491 3.76484375,8.80125491 L6.1,8.80125491 C6.20527266,8.80125491 6.290625,8.8804662 6.290625,8.97816456 C6.290625,9.07586291 6.20527266,9.1550742 6.1,9.1550742 L6.1,9.1550742 Z" id="Shape" fill="#BDC3C7"></path>
                                <path d="M8.4828125,10.0396224 L3.76484375,10.0396224 C3.65957109,10.0396224 3.57421875,9.96041114 3.57421875,9.86271279 C3.57421875,9.76501444 3.65957109,9.68580314 3.76484375,9.68580314 L8.4828125,9.68580314 C8.58808516,9.68580314 8.6734375,9.76501444 8.6734375,9.86271279 C8.6734375,9.96041114 8.58808516,10.0396224 8.4828125,10.0396224 L8.4828125,10.0396224 Z" id="Shape" fill="#BDC3C7"></path>
                                <path d="M1.334375,4.04680816 C1.28628984,4.04680816 1.23825234,4.03000175 1.20127109,3.99656582 L0.105177344,3.00463344 C0.0297851562,2.93639054 0.0282601562,2.82440673 0.10179375,2.75443897 C0.175279687,2.6844712 0.295992969,2.68314438 0.3713375,2.75129882 L1.33766328,3.62580743 L3.15865625,2.05949365 C3.23590703,1.99306408 3.35647734,1.99730991 3.42805703,2.06900254 C3.49963672,2.14065095 3.49506172,2.2525463 3.41785859,2.31897587 L1.46395234,3.99961751 C1.42735234,4.03115166 1.38083984,4.04680816 1.334375,4.04680816 L1.334375,4.04680816 Z" id="Shape" fill="#1ECA6B"></path>
                            </g>
                            <path d="M4.77634766,15.5319593 L5.76640625,13.6220428 L5.76640625,11.7202641 C5.76640625,11.7202641 5.65522422,10.9683981 6.3859375,10.9683981 C7.11665078,10.9683981 6.9578125,11.6318093 6.9578125,11.6318093 L6.97239531,14.1085443 C6.97239531,14.1085443 8.92749297,15.3469118 7.67799375,18.1774662 L10.5796875,18.1774662 L8.97514922,19.7254256 L5.11499297,19.7254256 L4.77634766,15.5319593 L4.77634766,15.5319593 Z" id="Shape" fill="#E5BF88"></path>
                            <rect id="Rectangle-path" fill="#ECF0F1" x="4.765625" y="19.4158337" width="4.71796875" height="0.751865997"></rect>
                            <rect id="Rectangle-path" fill="#BDC3C7" x="7.10078125" y="19.4158337" width="2.3828125" height="0.751865997"></rect>
                            <path d="M9.9125,22.4448364 L9.9125,20.1676997 L4.58510312,20.1676997 C6.10571875,21.2966044 7.92356641,22.0946438 9.9125,22.4448364 L9.9125,22.4448364 Z" id="Shape" fill="#33495F"></path>
                            <path d="M7.10078125,21.6102652 C7.98594844,21.9887634 8.92830312,22.2715534 9.9125,22.4448364 L9.9125,20.1676997 L7.10078125,20.1676997 L7.10078125,21.6102652 L7.10078125,21.6102652 Z" id="Shape" fill="#2B3E51"></path>
                            <polygon id="Shape" fill="#BFA072" points="7.67799375 18.1774662 9.48359375 19.2348994 10.5796875 18.1774662"></polygon>
                            <ellipse id="Oval" fill="#ECF0F1" cx="6.36210937" cy="11.5875818" rx="0.42890625" ry="0.398046704"></ellipse>
                        </g>
                    </g>
                </g>
            </g>
        </g>
    </g>
</svg>