<?xml version="1.0" encoding="UTF-8" standalone="no"?>
<svg width="25px" height="24px" viewBox="0 0 25 24" version="1.1" xmlns="http://www.w3.org/2000/svg" xmlns:xlink="http://www.w3.org/1999/xlink">
    <!-- Generator: Sketch 41 (35326) - http://www.bohemiancoding.com/sketch -->
    <title>Strategy</title>
    <desc>Created with Sketch.</desc>
    <defs>
        <radialGradient cx="50%" cy="50%" fx="50%" fy="50%" r="50%" id="radialGradient-1">
            <stop stop-color="#95A5A6" offset="0.51%"></stop>
            <stop stop-color="#7F8C8D" offset="100%"></stop>
        </radialGradient>
    </defs>
    <g id="Page-1" stroke="none" stroke-width="1" fill="none" fill-rule="evenodd">
        <g id="Mobile-Portrait" transform="translate(-24.000000, -1366.000000)">
            <g id="#work" transform="translate(-1.000000, 1149.000000)">
                <g id="cup" transform="translate(25.156250, 217.952684)">
                    <g id="Strategy">
                        <g id="trophy">
                            <path d="M24.4,11.3222174 C24.4,15.8337229 21.5567805,19.7289195 17.4425211,21.5487448 C16.9363164,21.772624 16.4108586,21.1924488 15.8691023,21.350783 C15.2984187,21.5175645 14.7096734,22.4191403 14.10625,22.5070644 C13.4851461,22.5975095 12.8484586,22.6444347 12.2,22.6444347 C11.5683641,22.6444347 10.9478797,22.5998535 10.3420734,22.5139639 C9.77191406,22.4331162 9.26242109,21.5796598 8.72109375,21.4281809 C8.14597812,21.2672816 7.54107734,21.8040255 7.00523047,21.5696644 C2.86528437,19.7589942 0,15.8511485 0,11.3222174 C0,5.06912478 5.46212109,0 12.2,0 C18.9378789,0 24.4,5.06912478 24.4,11.3222174 L24.4,11.3222174 Z" id="Shape" fill="url(#radialGradient-1)"></path>
                            <path d="M7.38671875,12.029856 C7.67861328,12.029856 7.67265625,12.2288793 7.67265625,12.2288793 L7.67265625,12.4721301 L7.67265625,12.5605849 L7.67265625,13.754725 C7.67265625,13.8033752 7.70453828,13.8698047 7.74352109,13.9023561 L8.36367188,14.7166712 C8.40265469,14.7492226 8.54209688,14.8748727 8.578125,14.9101661 L8.97128906,15.1921159 C9.00731719,15.2274094 9.06464766,15.0981326 9.07684766,15.145456 L9.39733594,16.3886443 C9.40953594,16.4359676 9.40319766,16.5114638 9.38327734,16.5564873 L9.16529766,16.2756875 C9.14537734,16.320711 8.87216406,16.4454323 8.83828047,16.4083255 L8.06791719,16.1440667 C8.03403359,16.1069599 7.99995938,16.0372133 7.99228672,15.9890938 L7.86256641,15.1809264 C7.85484609,15.1328069 7.82682422,15.0590798 7.80032734,15.017108 L7.14900938,13.9858132 C7.12246484,13.9438414 7.10078125,13.8697163 7.10078125,13.8210661 L7.10078125,12.5605849 L7.10078125,12.4721301 L7.10078125,12.2067656 C7.10078125,12.2067656 7.09482422,12.029856 7.38671875,12.029856 L7.38671875,12.029856 Z" id="Shape" fill="#BFA072"></path>
                            <path d="M7.053125,11.8087189 C7.34501953,11.8087189 7.3390625,12.0077423 7.3390625,12.0077423 L7.3390625,12.250993 L7.3390625,12.3394478 L7.3390625,13.533588 C7.3390625,13.5822381 7.37094453,13.6486677 7.40992734,13.6812191 L8.03007812,14.4955342 C8.06906094,14.5280855 8.20850312,14.6537356 8.24453125,14.6890291 L8.63769531,14.9709788 C8.67372344,15.0062723 8.73105391,14.8769956 8.74325391,14.9243189 L9.06374219,16.1675072 C9.07594219,16.2148306 9.06960391,16.2903267 9.04968359,16.3353503 L9.21352578,16.5920904 C9.19360547,16.6371139 8.46036641,15.9219566 8.56220781,16.4968688 L7.73422812,15.9229739 C7.70034453,15.8858671 7.66627031,15.8161204 7.65859766,15.768001 L7.52887734,14.9598335 C7.52115703,14.9117141 7.49313516,14.837987 7.46663828,14.7960152 L6.81532031,13.7647204 C6.78887109,13.7227044 6.7671875,13.6485792 6.7671875,13.5999291 L6.7671875,12.3394478 L6.7671875,12.250993 L6.7671875,11.9856285 C6.7671875,11.9856285 6.76123047,11.8087189 7.053125,11.8087189 L7.053125,11.8087189 Z" id="Shape" fill="#C9A978"></path>
                            <path d="M6.5765625,11.499127 C6.86845703,11.499127 6.8625,11.6981504 6.8625,11.6981504 L6.8625,11.9414011 L6.8625,12.029856 L6.8625,13.2239961 C6.8625,13.2726462 6.89438203,13.3390758 6.93336484,13.3716272 L7.55351562,14.1859423 C7.59249844,14.2184936 7.73194062,14.3441437 7.76796875,14.3794372 L8.16113281,14.6613869 C8.19716094,14.6966804 8.25449141,14.5674037 8.26669141,14.614727 L8.58717969,15.8579153 C8.59937969,15.9052387 8.59304141,15.9807349 8.57312109,16.0257584 L8.59342266,16.5852794 C8.57350234,16.6303029 8.30028906,16.7550242 8.26640547,16.7179174 L7.25776094,15.6133378 C7.22387734,15.576231 7.18980312,15.5064843 7.18213047,15.4583649 L7.05241016,14.6501974 C7.04468984,14.602078 7.01666797,14.5283509 6.99017109,14.4863791 L6.33885312,13.4550843 C6.31230859,13.4131125 6.290625,13.3389873 6.290625,13.2903372 L6.290625,12.029856 L6.290625,11.9414011 L6.290625,11.6760367 C6.290625,11.6760367 6.28466797,11.499127 6.5765625,11.499127 L6.5765625,11.499127 Z" id="Shape" fill="#D4B17E"></path>
                            <path d="M17.0609375,12.029856 C16.769043,12.029856 16.775,12.2288793 16.775,12.2288793 L16.775,12.4721301 L16.775,12.5605849 L16.775,13.754725 C16.775,13.8033752 16.743118,13.8698047 16.7041352,13.9023561 L16.0839844,14.7166712 C16.0450016,14.7492226 15.9055594,14.8748727 15.8695312,14.9101661 L15.4763672,15.1921159 C15.4403391,15.2274094 15.3830086,15.0981326 15.3708086,15.145456 L15.0503203,16.3886443 C15.0381203,16.4359676 15.0444586,16.5114638 15.0643789,16.5564873 L15.2823586,16.2756875 C15.3022789,16.320711 15.5754922,16.4454323 15.6093758,16.4083255 L16.3797391,16.1440667 C16.4136227,16.1069599 16.4476969,16.0372133 16.4553695,15.9890938 L16.5850898,15.1809264 C16.5928102,15.1328069 16.620832,15.0590798 16.6473289,15.017108 L17.2986469,13.9858132 C17.3251437,13.9438414 17.3468273,13.8696721 17.3468273,13.8210219 L17.3468273,12.5605849 L17.3468273,12.4721301 L17.3468273,12.2067656 C17.346875,12.2067656 17.352832,12.029856 17.0609375,12.029856 L17.0609375,12.029856 Z" id="Shape" fill="#BFA072"></path>
                            <path d="M17.3945312,11.8087189 C17.1026367,11.8087189 17.1085937,12.0077423 17.1085937,12.0077423 L17.1085937,12.250993 L17.1085937,12.3394478 L17.1085937,13.533588 C17.1085937,13.5822381 17.0767117,13.6486677 17.0377289,13.6812191 L16.4175781,14.4955342 C16.3785953,14.5280855 16.2391531,14.6537356 16.203125,14.6890291 L15.8099609,14.9709788 C15.7739328,15.0062723 15.7166023,14.8769956 15.7044023,14.9243189 L15.3839141,16.1675072 C15.3717141,16.2148306 15.3780523,16.2903267 15.3979727,16.3353503 L15.2341305,16.5920904 C15.2540508,16.6371139 15.9872898,15.9219566 15.8854484,16.4968688 L16.7134281,15.9229739 C16.7473117,15.8858671 16.7813859,15.8161204 16.7890586,15.768001 L16.9187789,14.9598335 C16.9264992,14.9117141 16.9545211,14.837987 16.981018,14.7960152 L17.6323359,13.7647204 C17.6588328,13.7227486 17.6805164,13.6485792 17.6805164,13.5999291 L17.6805164,12.3394478 L17.6805164,12.250993 L17.6805164,11.9856285 C17.6804687,11.9856285 17.6864258,11.8087189 17.3945312,11.8087189 L17.3945312,11.8087189 Z" id="Shape" fill="#C9A978"></path>
                            <path d="M17.8710937,11.499127 C17.5791992,11.499127 17.5851562,11.6981504 17.5851562,11.6981504 L17.5851562,11.9414011 L17.5851562,12.029856 L17.5851562,13.2239961 C17.5851562,13.2726462 17.5532742,13.3390758 17.5142914,13.3716272 L16.8941406,14.1859423 C16.8551578,14.2184936 16.7157156,14.3441437 16.6796875,14.3794372 L16.2865234,14.6613869 C16.2504953,14.6966804 16.1931648,14.5674037 16.1809648,14.614727 L15.8604766,15.8579153 C15.8482766,15.9052387 15.8546148,15.9807349 15.8745352,16.0257584 L15.8542336,16.5852794 C15.8741539,16.6303029 16.1473672,16.7550242 16.1812508,16.7179174 L17.1898953,15.6133378 C17.2237789,15.576231 17.2578531,15.5064843 17.2655258,15.4583649 L17.3952461,14.6501974 C17.4029664,14.602078 17.4309883,14.5283509 17.4574852,14.4863791 L18.1088031,13.4550843 C18.1353,13.4131125 18.1569836,13.3389431 18.1569836,13.290293 L18.1569836,12.029856 L18.1569836,11.9414011 L18.1569836,11.6760367 C18.1570312,11.6760367 18.1629883,11.499127 17.8710937,11.499127 L17.8710937,11.499127 Z" id="Shape" fill="#D4B17E"></path>
                            <g id="Group" transform="translate(5.099219, 2.388280)">
                                <path d="M4.48583516,6.88063533 C2.68614453,6.88063533 1.34576484,5.89608892 0.609571094,4.03340726 C0.0735335937,2.67726213 0.0485140625,1.34283267 0.04765625,1.28670809 C0.0464648437,1.20391437 0.0811109375,1.12408389 0.143778906,1.06512875 C0.206494531,1.00617361 0.291989844,0.973003055 0.38125,0.973003055 L3.47890625,0.973003055 C3.66314531,0.973003055 3.8125,1.11161176 3.8125,1.28259494 C3.8125,1.45357811 3.66314531,1.59218682 3.47890625,1.59218682 L0.733525,1.59218682 C0.772174219,2.05162117 0.889360937,2.94912803 1.24120703,3.8334109 C1.88227891,5.44457128 2.97394062,6.26145157 4.48588281,6.26145157 C4.67012187,6.26145157 4.81947656,6.40006028 4.81947656,6.57104345 C4.81947656,6.74202663 4.67012187,6.88063533 4.48583516,6.88063533 L4.48583516,6.88063533 Z" id="Shape" fill="#F59D00"></path>
                                <path d="M9.71572734,6.88063533 C9.53148828,6.88063533 9.38213359,6.74202663 9.38213359,6.57104345 C9.38213359,6.40006028 9.53148828,6.26145157 9.71572734,6.26145157 C11.2319586,6.26145157 12.3253836,5.44010431 12.9656453,3.82023113 C13.3144414,2.93767313 13.4302461,2.04856948 13.4683711,1.59218682 L10.7226563,1.59218682 C10.5384172,1.59218682 10.3890625,1.45357811 10.3890625,1.28259494 C10.3890625,1.11161176 10.5384172,0.973003055 10.7226563,0.973003055 L13.8203125,0.973003055 C13.9095727,0.973003055 13.995068,1.00617361 14.0577359,1.06512875 C14.1204039,1.12408389 14.15505,1.20391437 14.1538586,1.28670809 C14.1530484,1.3428769 14.1279813,2.67726213 13.5919438,4.03340726 C12.8557977,5.89608892 11.5153703,6.88063533 9.71572734,6.88063533 L9.71572734,6.88063533 Z" id="Shape" fill="#E87E04"></path>
                                <path d="M7.10078125,0 L2.9546875,0 C2.9546875,0 2.9546875,7.78402444 6.43359375,7.78402444 L6.43359375,9.10545105 L7.10078125,9.1550742 L7.10078125,0 L7.10078125,0 Z" id="Shape" fill="#F4CC20"></path>
                                <path d="M7.10078125,0 L11.246875,0 C11.246875,0 11.246875,7.78402444 7.76796875,7.78402444 L7.76796875,9.10545105 L7.10078125,9.1550742 L7.10078125,0 L7.10078125,0 Z" id="Shape" fill="#F59D00"></path>
                                <path d="M12.009375,13.4893605 C12.009375,13.6839612 11.8378125,13.8431798 11.628125,13.8431798 L2.62109375,13.8431798 C2.41140625,13.8431798 2.23984375,13.6839612 2.23984375,13.4893605 L2.23984375,10.1723047 C2.23984375,9.97770406 2.41140625,9.81848538 2.62109375,9.81848538 L11.628125,9.81848538 C11.8378125,9.81848538 12.009375,9.97770406 12.009375,10.1723047 L12.009375,13.4893605 L12.009375,13.4893605 Z" id="Shape" fill="#33495F"></path>
                                <path d="M10.865625,12.6490397 C10.865625,12.74634 10.7798437,12.8259494 10.675,12.8259494 L3.57421875,12.8259494 C3.469375,12.8259494 3.38359375,12.74634 3.38359375,12.6490397 L3.38359375,11.0568529 C3.38359375,10.9595526 3.469375,10.8799433 3.57421875,10.8799433 L10.675,10.8799433 C10.7798437,10.8799433 10.865625,10.9595526 10.865625,11.0568529 L10.865625,12.6490397 L10.865625,12.6490397 Z" id="Shape" fill="#ECF0F1"></path>
                                <path d="M11.628125,9.81848538 L7.10078125,9.81848538 L7.10078125,13.8431798 L11.628125,13.8431798 C11.8378125,13.8431798 12.009375,13.6839612 12.009375,13.4893605 L12.009375,10.1723047 C12.009375,9.97770406 11.8378125,9.81848538 11.628125,9.81848538 L11.628125,9.81848538 Z" id="Shape" fill="#2B3E51"></path>
                                <path d="M7.10078125,9.81848538 L7.10078125,9.33198385 L4.71796875,9.33198385 C4.71796875,9.33198385 3.47890625,9.58315132 3.47890625,9.83427456 L7.10078125,9.81848538 L7.10078125,9.81848538 Z" id="Shape" fill="#F4CC20"></path>
                                <rect id="Rectangle-path" fill="#F59D00" x="5.28984375" y="8.93393715" width="1.8109375" height="0.398046704"></rect>
                                <path d="M7.10078125,9.81848538 L7.10078125,9.33198385 L9.48359375,9.33198385 C9.48359375,9.33198385 10.7226562,9.58315132 10.7226562,9.83427456 L7.10078125,9.81848538 L7.10078125,9.81848538 Z" id="Shape" fill="#F59D00"></path>
                                <rect id="Rectangle-path" fill="#E87E04" x="7.10078125" y="8.93393715" width="1.8109375" height="0.398046704"></rect>
                                <path d="M10.675,10.8799433 L7.10078125,10.8799433 L7.10078125,12.8259494 L10.675,12.8259494 C10.7798437,12.8259494 10.865625,12.74634 10.865625,12.6490397 L10.865625,11.0568529 C10.865625,10.9595526 10.7798437,10.8799433 10.675,10.8799433 L10.675,10.8799433 Z" id="Shape" fill="#BDC3C7"></path>
                            </g>
                            <rect id="Rectangle-path" fill="#ECF0F1" x="14.3445312" y="18.0447839" width="2.859375" height="0.619183763"></rect>
                            <rect id="Rectangle-path" fill="#BDC3C7" x="14.3445312" y="18.0447839" width="1.4296875" height="0.619183763"></rect>
                            <path d="M14.10625,22.5065779 C15.2825016,22.3352851 16.4028523,22.0080465 17.4421875,21.5483468 L17.4421875,18.6639677 L14.10625,18.6639677 L14.10625,22.5065779 L14.10625,22.5065779 Z" id="Shape" fill="#33495F"></path>
                            <path d="M14.10625,22.5065779 C14.6763141,22.4235631 15.233225,22.3038394 15.7742187,22.1502376 L15.7742187,18.6639677 L14.10625,18.6639677 L14.10625,22.5065779 L14.10625,22.5065779 Z" id="Shape" fill="#2B3E51"></path>
                            <path d="M14.0823742,9.06661938 C14.0376727,9.06661938 13.9927805,9.05211279 13.9565617,9.02256888 C13.8775,8.95804108 13.8697797,8.84627842 13.9393102,8.77286091 C14.5674195,8.10998047 14.8959141,7.09664201 15.0609,6.36326307 C15.0824406,6.26764341 15.1833289,6.20616731 15.286457,6.22620232 C15.3895375,6.24619311 15.4556367,6.339911 15.4340961,6.43553066 C15.2597695,7.2105276 14.9085906,8.28569597 14.2256289,9.00651433 C14.1878852,9.046319 14.135225,9.06661938 14.0823742,9.06661938 L14.0823742,9.06661938 Z" id="Shape" fill="#F4CC20"></path>
                            <path d="M15.416082,5.57689969 C15.4095055,5.57689969 15.4028336,5.5765901 15.3961617,5.57597092 C15.2914609,5.56584284 15.2154016,5.47893598 15.2262672,5.38172413 C15.2444719,5.21918839 15.2502383,5.12184386 15.2502859,5.12087085 C15.2560047,5.02334941 15.3458844,4.94692444 15.4508711,4.95382392 C15.5560008,4.95904275 15.6365875,5.0423672 15.6309641,5.13993287 C15.6307258,5.1441787 15.6247211,5.24603443 15.6054203,5.4183002 C15.5952695,5.50918753 15.5124906,5.57689969 15.416082,5.57689969 L15.416082,5.57689969 Z" id="Shape" fill="#F4CC20"></path>
                            <ellipse id="Oval" fill="#ECF0F1" cx="16.7609414" cy="13.9367208" rx="0.190053125" ry="0.176378918"></ellipse>
                            <path d="M18.3,11.6760367 C18.0081055,11.6760367 18.0140625,11.87506 18.0140625,11.87506 L18.0140625,12.1183108 L18.0140625,12.2067656 L18.0140625,13.4009057 C18.0140625,13.4495559 17.9821805,13.5159854 17.9431977,13.5485368 L17.3230469,14.3628519 C17.2840641,14.3954033 17.1605391,14.6408212 17.1244633,14.6761147 L16.9576187,14.7422347 L17.0043695,14.0121728 C17.0043695,14.0121728 17.1148844,13.7006349 16.7863898,13.7006349 C16.457943,13.7006349 16.4730023,13.9739161 16.4730023,13.9739161 L16.2892875,14.8336527 C16.2892875,14.8336527 14.8965336,14.9488209 15.4582102,16.2314158 L14.1539062,16.2314158 L14.86875,16.894827 L14.86875,18.0447397 L16.6320312,18.0447397 L16.6320312,16.894827 L17.6297625,15.7902474 C17.6636461,15.7531406 17.6922398,15.683394 17.6999602,15.6352746 L17.8269641,14.8271071 C17.8346844,14.7789876 17.8613242,14.7052605 17.8878211,14.6632887 L18.5384242,13.6319939 C18.5649211,13.5900221 18.5859375,13.5158528 18.5859375,13.4672026 L18.5859375,12.2067656 L18.5859375,12.1183108 L18.5859375,11.8529463 C18.5859375,11.8529463 18.5918945,11.6760367 18.3,11.6760367 L18.3,11.6760367 Z" id="Shape" fill="#E5BF88"></path>
                            <polygon id="Shape" fill="#BFA072" points="15.4581625 16.2314601 14.1539062 16.2314601 14.5712797 16.6188037"></polygon>
                            <ellipse id="Oval" fill="#ECF0F1" cx="16.7609414" cy="13.9367208" rx="0.190053125" ry="0.176378918"></ellipse>
                            <rect id="Rectangle-path" fill="#BDC3C7" x="7.24375" y="18.0447839" width="2.859375" height="0.619183763"></rect>
                            <rect id="Rectangle-path" fill="#ECF0F1" x="8.6734375" y="18.0447839" width="1.4296875" height="0.619183763"></rect>
                            <path d="M7.00546875,21.569001 C8.04551875,22.0238799 9.16563125,22.3471381 10.3414062,22.5138754 L10.3414062,18.6639677 L7.00546875,18.6639677 L7.00546875,21.569001 L7.00546875,21.569001 Z" id="Shape" fill="#2B3E51"></path>
                            <path d="M8.6734375,22.1633732 C9.21462188,22.3148078 9.77138984,22.4330277 10.3414063,22.5138754 L10.3414063,18.6639677 L8.6734375,18.6639677 L8.6734375,22.1633732 L8.6734375,22.1633732 Z" id="Shape" fill="#33495F"></path>
                            <ellipse id="Oval" fill="#ECF0F1" cx="7.68671484" cy="13.9367208" rx="0.190053125" ry="0.176378918"></ellipse>
                            <path d="M6.14765625,11.6760367 C6.43955078,11.6760367 6.43359375,11.87506 6.43359375,11.87506 L6.43359375,12.1183108 L6.43359375,12.2067656 L6.43359375,13.4009057 C6.43359375,13.4495559 6.46547578,13.5159854 6.50445859,13.5485368 L7.12460937,14.3628519 C7.16359219,14.3954033 7.28711719,14.6408212 7.32319297,14.6761147 L7.4900375,14.7422347 L7.44328672,14.0121728 C7.44328672,14.0121728 7.33277187,13.7006349 7.66126641,13.7006349 C7.98971328,13.7006349 7.97465391,13.9739161 7.97465391,13.9739161 L8.15836875,14.8336527 C8.15836875,14.8336527 9.55112266,14.9488209 8.98944609,16.2314158 L10.29375,16.2314158 L9.57890625,16.894827 L9.57890625,18.0447397 L7.815625,18.0447397 L7.815625,16.894827 L6.81789375,15.7902474 C6.78401016,15.7531406 6.75541641,15.683394 6.74769609,15.6352746 L6.62069219,14.8271071 C6.61297187,14.7789876 6.58633203,14.7052605 6.55983516,14.6632887 L5.90923203,13.6319939 C5.88273516,13.5900221 5.86171875,13.515897 5.86171875,13.4672468 L5.86171875,12.2067656 L5.86171875,12.1183108 L5.86171875,11.8529463 C5.86171875,11.8529463 5.85576172,11.6760367 6.14765625,11.6760367 L6.14765625,11.6760367 Z" id="Shape" fill="#E5BF88"></path>
                            <polygon id="Shape" fill="#BFA072" points="8.98949375 16.2314601 10.29375 16.2314601 9.87637656 16.6188037"></polygon>
                            <ellipse id="Oval" fill="#ECF0F1" cx="7.68671484" cy="13.9367208" rx="0.190053125" ry="0.176378918"></ellipse>
                        </g>
                    </g>
                </g>
            </g>
        </g>
    </g>
</svg>