<?xml version="1.0" encoding="UTF-8" standalone="no"?>
<svg width="22px" height="22px" viewBox="0 0 22 22" version="1.1" xmlns="http://www.w3.org/2000/svg" xmlns:xlink="http://www.w3.org/1999/xlink">
    <!-- Generator: Sketch 41 (35326) - http://www.bohemiancoding.com/sketch -->
    <title>fi-list</title>
    <desc>Created with Sketch.</desc>
    <defs></defs>
    <g id="Page-1" stroke="none" stroke-width="1" fill="none" fill-rule="evenodd">
        <g id="Mobile-Portrait" transform="translate(-20.000000, -11.000000)" fill="#FFFFFF">
            <g id="fi-list" transform="translate(20.000000, 11.000000)">
                <g id="Layer_1">
                    <g id="Group">
                        <path d="M0.187666667,4.42566667 L0.191666667,4.42566667 C0.191666667,4.84066667 0.526333333,5.177 0.940333333,5.18133333 L0.940333333,5.182 L21.06,5.182 L21.06,5.18166667 C21.476,5.17966667 21.813,4.84233333 21.813,4.42566667 L21.8163333,4.42566667 L21.8163333,0.939333333 L21.8163333,0.939333333 C21.8156667,0.522333333 21.4773333,0.184333333 21.06,0.184333333 L21.06,0.184333333 L0.940333333,0.184333333 L0.940333333,0.184333333 L0.940333333,0.184333333 C0.522666667,0.184333333 0.184,0.523333333 0.184,0.940666667 C0.184,0.953666667 0.187333333,0.966 0.188,0.979 L0.187666667,4.42566667 L0.187666667,4.42566667 Z" id="Shape"></path>
                        <path d="M21.0596667,8.50133333 L21.0596667,8.50133333 L0.940333333,8.50133333 L0.940333333,8.50133333 L0.940333333,8.50133333 C0.522666667,8.50133333 0.184,8.84033333 0.184,9.25766667 C0.184,9.27066667 0.187333333,9.283 0.188,9.296 L0.188,12.7426667 L0.192,12.7426667 C0.192,13.1576667 0.526666667,13.494 0.940666667,13.4983333 L0.940666667,13.499 L21.0603333,13.499 L21.0603333,13.4986667 C21.4763333,13.4966667 21.8133333,13.1593333 21.8133333,12.7426667 L21.8166667,12.7426667 L21.8166667,9.25633333 L21.8166667,9.25633333 C21.8153333,8.83933333 21.477,8.50133333 21.0596667,8.50133333 L21.0596667,8.50133333 Z" id="Shape"></path>
                        <path d="M21.0596667,16.818 L21.0596667,16.818 L0.940333333,16.818 L0.940333333,16.818 L0.940333333,16.818 C0.522666667,16.818 0.184,17.157 0.184,17.5743333 C0.184,17.5873333 0.187333333,17.5996667 0.188,17.6126667 L0.188,21.0593333 L0.192,21.0593333 C0.192,21.4743333 0.526666667,21.8106667 0.940666667,21.815 L0.940666667,21.8156667 L21.0603333,21.8156667 L21.0603333,21.8153333 C21.4763333,21.8133333 21.8133333,21.4756667 21.8133333,21.059 L21.8166667,21.059 L21.8166667,17.5726667 L21.8166667,17.5726667 C21.8153333,17.156 21.477,16.818 21.0596667,16.818 L21.0596667,16.818 Z" id="Shape"></path>
                    </g>
                </g>
            </g>
        </g>
    </g>
</svg>