<?xml version="1.0" encoding="utf-8"?>
<!-- Generator: Adobe Illustrator 19.0.0, SVG Export Plug-In . SVG Version: 6.00 Build 0)  -->
<svg version="1.1" id="Слой_1" xmlns="http://www.w3.org/2000/svg" xmlns:xlink="http://www.w3.org/1999/xlink" x="0px" y="0px"
	 viewBox="-50 -7 48 48" style="enable-background:new -50 -7 48 48;" xml:space="preserve">
<style type="text/css">
	.st0{fill:none;}
	.st1{fill:#D84909;}
</style>
<path class="st0" d="M-50-7h48v48h-48V-7z"/>
<path class="st1" d="M12.5-7L-5.2-21.9l-4.9,5.9L7.6-1.2L12.5-7z M-41.9-16l-4.9-5.9L-64.5-7.1l4.9,5.9C-59.6-1.2-41.9-16-41.9-16z
	 M-24.1,1.7h-5.8v23.1l18.3,11l2.9-4.8l-15.4-9.1V1.7z M-26-13.7c-19.2,0-34.6,15.5-34.6,34.7S-45.2,55.6-26,55.6S8.6,40.1,8.6,21
	S-6.9-13.7-26-13.7z M-26,47.9c-14.9,0-27-12.1-27-27S-40.9-6-26-6s27,12.1,27,27S-11.1,47.9-26,47.9z"/>
</svg>
