<svg width="77px" height="77px" viewBox="0 0 77 77" >
    <g id="Page-1" stroke="none" stroke-width="1" fill="none" fill-rule="evenodd">
        <g id="Mobile-Portrait" transform="translate(-122.000000, -351.000000)">
            <g id="Preim" transform="translate(0.000000, 289.000000)">
                <g id="alarm" transform="translate(79.000000, 48.000000)">
                    <g id="ic_alarm" transform="translate(36.000000, 0.000000)">
                        <g id="Group">
                            <polygon id="Shape" points="0 0 90.5555556 0 90.5555556 90.5066556 0 90.5066556"></polygon>
                            <path d="M83.3111111,29.0453926 L65.9546296,14.4888889 L61.0869667,20.2584852 L78.4434481,34.8149889 L83.3111111,29.0453926 L83.3111111,29.0453926 Z M30.0342593,20.2584852 L25.2046296,14.4888889 L7.84814815,29.0073593 L12.7158111,34.7769556 L30.034863,20.2584852 L30.0342593,20.2584852 Z M47.4662037,37.6433407 L41.8064815,37.6433407 L41.8064815,60.2701556 L59.729237,71.0178926 L62.5594,66.379637 L47.4668074,57.4424074 L47.4668074,37.6439444 L47.4662037,37.6433407 Z M45.5796296,22.5592 C26.8267815,22.5592 11.6212963,37.756837 11.6212963,56.4988185 C11.6212963,75.2414037 26.7893519,90.438437 45.5796296,90.438437 C64.3324778,90.438437 79.537963,75.2408 79.537963,56.4988185 C79.537963,37.7562333 64.3318741,22.5592 45.5796296,22.5592 L45.5796296,22.5592 Z M45.5796296,82.8969704 C30.9772444,82.8969704 19.1675926,71.0933556 19.1675926,56.4994222 C19.1675926,41.9054889 30.9778481,30.1018741 45.5796296,30.1018741 C60.1820148,30.1018741 71.9916667,41.9054889 71.9916667,56.4994222 C71.9916667,71.0933556 60.1814111,82.8969704 45.5796296,82.8969704 L45.5796296,82.8969704 Z" id="Shape" fill="#D63D1B"></path>
                        </g>
                    </g>
                </g>
            </g>
        </g>
    </g>
</svg>