<?xml version="1.0" encoding="UTF-8" standalone="no"?>
<svg width="108px" height="57px" viewBox="0 0 108 57" version="1.1" xmlns="http://www.w3.org/2000/svg" xmlns:xlink="http://www.w3.org/1999/xlink">
    <!-- Generator: Sketch 41 (35326) - http://www.bohemiancoding.com/sketch -->
    <title>ic_motorcycle</title>
    <desc>Created with Sketch.</desc>
    <defs></defs>
    <g id="Page-1" stroke="none" stroke-width="1" fill="none" fill-rule="evenodd">
        <g id="Mobile-Portrait" transform="translate(-106.000000, -983.000000)">
            <g id="Preim" transform="translate(0.000000, 289.000000)">
                <g id="moto" transform="translate(63.000000, 654.000000)">
                    <g id="ic_motorcycle" transform="translate(43.111111, 0.000000)">
                        <g id="Page-1-Copy">
                            <g id="Desktop-HD">
                                <g id="Group-3">
                                    <g id="Group-7" transform="translate(0.000000, 0.452618)">
                                        <g id="ic_motorcycle">
                                            <polygon id="Bounds" points="0 0 107.777778 0 107.777778 95.8289039 0 95.8289039"></polygon>
                                            <path d="M69.2023148,39.795912 L49.3981481,39.795912 L49.3981481,47.781654 L65.5199074,47.781654 L74.5013889,55.7673959 L22.4537037,55.7673959 C9.87962963,55.7673959 0,64.5517121 0,75.7317509 C0,86.9117894 9.87962963,95.696106 22.4537037,95.696106 C33.5009259,95.696106 42.4375,88.9481539 44.4583333,79.7246219 L51.8680556,79.7246219 L64.3074074,68.6643692 C63.3643519,70.8205195 62.8703704,73.2162422 62.8703704,75.7317509 C62.8703704,86.9117894 72.75,95.696106 85.3240741,95.696106 C97.8981481,95.696106 107.777778,86.9117894 107.777778,75.7317509 C107.777778,65.1506428 98.9310185,56.6857563 87.3,55.887182 L69.2023148,39.795912 L69.2023148,39.795912 Z M35.1175926,79.7246219 C33.2314815,84.3164233 28.2018519,87.7103637 22.4537037,87.7103637 C15.1337963,87.7103637 8.98148148,82.2401306 8.98148148,75.7317509 C8.98148148,69.2233712 15.1337963,63.7531379 22.4537037,63.7531379 C28.2018519,63.7531379 33.2314815,67.1470782 35.1175926,71.7388799 L22.4537037,71.7388799 L22.4537037,79.7246219 L35.1175926,79.7246219 L35.1175926,79.7246219 L35.1175926,79.7246219 Z M85.3240741,87.7103637 C77.8694444,87.7103637 71.8518519,82.3599168 71.8518519,75.7317509 C71.8518519,69.1035851 77.8694444,63.7531379 85.3240741,63.7531379 C92.7787037,63.7531379 98.7962963,69.1035851 98.7962963,75.7317509 C98.7962963,82.3599168 92.7787037,87.7103637 85.3240741,87.7103637 L85.3240741,87.7103637 L85.3240741,87.7103637 Z" id="Icon" fill="#D63D1B"></path>
                                        </g>
                                    </g>
                                </g>
                            </g>
                        </g>
                    </g>
                </g>
            </g>
        </g>
    </g>
</svg>