      <svg x="0px" y="0px" width="150px" height="35px" viewbox="0 0 150 35" style="enable-background:new 0 0 150 35;" xml:space="preserve" class="logo-img">
        <g id="XMLID_2_">
          <path id="XMLID_4_" d="M10.6,23.7l2.9-19.4h6v27.3h-4.1V12l-3,19.5H8.4L5.2,12.3v19.3H1.5V4.3h6L10.6,23.7z" class="st0"></path>
          <path id="XMLID_6_" d="M21.3,10.9c0-2.2,0.6-3.9,1.7-5.1C24.1,4.6,25.7,4,27.8,4s3.7,0.6,4.8,1.8          c1.1,1.2,1.7,2.9,1.7,5.1V25c0,2.2-0.6,3.9-1.7,5.1c-1.1,1.2-2.7,1.8-4.8,1.8s-3.7-0.6-4.8-1.8c-1.1-1.2-1.7-2.9-1.7-5.1V10.9z          M25.6,25.3c0,1,0.2,1.7,0.6,2.1c0.4,0.4,0.9,0.6,1.6,0.6c0.7,0,1.2-0.2,1.6-0.6c0.4-0.4,0.6-1.1,0.6-2.1V10.6c0-1-0.2-1.7-0.6-2.1          c-0.4-0.4-0.9-0.6-1.6-0.6c-0.7,0-1.2,0.2-1.6,0.6c-0.4,0.4-0.6,1.1-0.6,2.1V25.3z" class="st0"></path>
          <path id="XMLID_9_" d="M40.5,31.6h-4.3V4.3h4.3V16h4.9V4.3h4.4v27.3h-4.4V19.9h-4.9V31.6z" class="st0"></path>
          <path id="XMLID_11_" d="M51.2,4.3h13.2v3.9h-4.5v23.4h-4.3V8.2h-4.5V4.3z" class="st0"></path>
          <path id="XMLID_13_" d="M77.6,31.6h-4.3l-0.7-4.9h-5.3l-0.7,4.9h-3.9L67,4.3h6.3L77.6,31.6z M67.9,22.9H72L69.9,9.1          L67.9,22.9z" class="st0"></path>
          <path id="XMLID_16_" d="M83.6,31.6h-4.4l6-15.1l-6-12.2h4.2l5.7,11.9V4.3h4.3v27.3h-4.3v-8.4l-1.3-2.5L83.6,31.6z" class="st0"></path>
          <path id="XMLID_18_" d="M95,20.7l-1.3,2.5v8.4h-4.3V4.3h4.3v11.9l5.7-11.9h4.2l-6,12.2l6,15.1h-4.4L95,20.7z" class="st0"></path>
          <path id="XMLID_20_" d="M108.6,31.6h-4.3V4.3h4.3V16h4.9V4.3h4.4v27.3h-4.4V19.9h-4.9V31.6z" class="st0"></path>
          <path id="XMLID_22_" d="M123,31.6h-3.1V4.3h3.8v16.3l6.7-16.3h3.1v27.3h-3.9V16.1L123,31.6z" class="st0"></path>
          <path id="XMLID_24_" d="M140.1,20.7l-1.3,2.5v8.4h-4.3V4.3h4.3v11.9l5.7-11.9h4.2l-6,12.2l6,15.1h-4.4L140.1,20.7z" class="st0"></path>
        </g>
      </svg>