<?xml version="1.0" encoding="UTF-8" standalone="no"?>
<svg width="25px" height="24px" viewBox="0 0 25 24" version="1.1" xmlns="http://www.w3.org/2000/svg" xmlns:xlink="http://www.w3.org/1999/xlink">
    <!-- Generator: Sketch 41 (35326) - http://www.bohemiancoding.com/sketch -->
    <title>Strategy</title>
    <desc>Created with Sketch.</desc>
    <defs>
        <radialGradient cx="50%" cy="50%" fx="50%" fy="50%" r="50%" id="radialGradient-1">
            <stop stop-color="#33495F" offset="0.51%"></stop>
            <stop stop-color="#2B3E51" offset="100%"></stop>
        </radialGradient>
    </defs>
    <g id="Page-1" stroke="none" stroke-width="1" fill="none" fill-rule="evenodd">
        <g id="Mobile-Portrait" transform="translate(-24.000000, -1233.000000)">
            <g id="#work" transform="translate(-115.000000, 1149.000000)">
                <g id="transport" transform="translate(139.156250, 84.916630)">
                    <g id="Strategy">
                        <g id="mission_1">
                            <path d="M24.4,11.3222174 C24.4,17.57531 18.9378789,22.6444347 12.2,22.6444347 C8.85000391,22.6444347 5.81534922,21.3913395 3.61058047,19.3626281 C1.38093516,17.3110512 0,14.4663441 0,11.3222174 C0,5.06912478 5.46212109,0 12.2,0 C18.9378789,0 24.4,5.06912478 24.4,11.3222174 L24.4,11.3222174 Z" id="Shape" fill="url(#radialGradient-1)"></path>
                            <path d="M18.1607484,18.8527745 C18.0499477,18.8401255 17.9373359,18.832828 17.8228656,18.832828 C17.5769117,18.832828 17.3388211,18.8633449 17.1120727,18.9198233 C16.9070555,18.083306 16.2632672,17.4021596 15.4167969,17.0953983 C15.4201805,17.0591318 15.4222773,17.0225115 15.4222773,16.9853605 C15.4222773,16.2931131 14.8175195,15.7317788 14.0714609,15.7317788 C14.0440586,15.7317788 14.0169422,15.7327518 13.9900641,15.7342555 C13.8143078,14.9328106 13.0506641,14.3296814 12.1351875,14.3296814 C11.2907188,14.3296814 10.5755891,14.8430289 10.331875,15.5517732 C9.82052344,15.6379282 9.42878906,16.0391593 9.39724063,16.5311892 C8.2799875,16.6054913 7.34115938,17.2758462 6.94761406,18.2018797 C6.4515125,18.3377463 6.01064453,18.592452 5.66265859,18.9305263 C5.17365781,18.74026 4.6367625,18.6348661 4.07322734,18.6348661 C3.70412969,18.6348661 3.34656484,18.6803761 3.00634688,18.7651158 C3.20002188,18.9709502 3.40160781,19.1702831 3.61062813,19.3626281 C5.81534922,21.3913395 8.85000391,22.6444347 12.2,22.6444347 C16.0333734,22.6444347 19.4531383,21.0031555 21.6897414,18.4370369 C21.2792781,18.0695955 20.721557,17.8430627 20.1061719,17.8430627 C19.2834344,17.8430627 18.5626336,18.2470359 18.1607484,18.8527745 L18.1607484,18.8527745 Z" id="Shape" fill="#ECF0F1" opacity="0.5"></path>
                            <path d="M13.9738133,16.5460054 C13.9738133,18.4575584 12.2,20.8753383 12.2,20.8753383 C12.2,20.8753383 10.4261867,18.634468 10.4261867,16.5460054 C10.4261867,15.6368225 11.2203305,14.8998169 12.2,14.8998169 C13.1796695,14.8998169 13.9738133,15.6368667 13.9738133,16.5460054 L13.9738133,16.5460054 Z" id="Shape" fill="#E87E04"></path>
                            <path d="M13.3781102,15.9931185 C13.3781102,17.2626664 12.2,18.8685195 12.2,18.8685195 C12.2,18.8685195 11.0219375,17.3802671 11.0219375,15.9931185 C11.0219375,15.3892817 11.5493492,14.8998169 12.2,14.8998169 C12.8506508,14.8998612 13.3781102,15.3892817 13.3781102,15.9931185 L13.3781102,15.9931185 Z" id="Shape" fill="#F59D00"></path>
                            <path d="M12.9571148,15.742526 C12.9571148,16.5156212 12.2396977,17.4935335 12.2396977,17.4935335 C12.2396977,17.4935335 11.5222805,16.5872254 11.5222805,15.742526 C11.5222805,15.3748193 11.8434836,15.0767266 12.2396977,15.0767266 C12.6359117,15.0767708 12.9571148,15.3748193 12.9571148,15.742526 L12.9571148,15.742526 Z" id="Shape" fill="#F2C500"></path>
                            <g id="Group" transform="translate(6.100000, 0.840321)">
                                <path d="M9.23044375,3.44310399 C9.16162812,3.30851998 6.14765625,4.28563619 6.14765625,4.28563619 C6.14765625,4.28563619 3.13368437,3.30847575 3.06491641,3.44305977 C3.06887187,3.44562496 3.07306562,3.44819015 3.07706875,3.45075534 C0.488047656,8.52412595 3.96452344,14.1764334 3.96452344,14.1764334 C3.96452344,14.1764334 4.06865234,14.3739088 4.32618672,14.3739088 L6.14765625,14.3739088 L7.99080937,14.3739088 C8.24834375,14.3739088 8.3470875,14.1764334 8.3470875,14.1764334 C8.3470875,14.1764334 11.8206086,8.52027816 9.22658359,3.4455365 C9.227775,3.44474041 9.22915703,3.44390009 9.23044375,3.44310399 L9.23044375,3.44310399 Z" id="Shape" fill="#ECF0F1"></path>
                                <path d="M9.22648828,3.44549227 C11.8206086,8.52023394 8.34703984,14.1764334 8.34703984,14.1764334 C8.34703984,14.1764334 8.24834375,14.3739088 7.99080938,14.3739088 L6.14765625,14.3739088 L6.14765625,4.28563619 C7.7203125,4.19116643 8.69545469,3.78896235 9.22648828,3.44549227 L9.22648828,3.44549227 Z" id="Shape" fill="#BDC3C7"></path>
                                <path d="M6.14765625,0.00521883457 C5.00390625,0.00521883457 3.68940391,2.22123329 3.06491641,3.44305977 C3.59599766,3.78652985 4.575,4.19116643 6.14765625,4.28563619 C7.7203125,4.19112221 8.69931484,3.78652985 9.23044375,3.44305977 C8.60590859,2.22127752 7.29140625,0.00521883457 6.14765625,0.00521883457 L6.14765625,0.00521883457 Z" id="Shape" fill="#E94B35"></path>
                                <path d="M6.14765625,0.00521883457 L6.14765625,4.28563619 C7.7203125,4.19112221 8.69931484,3.78652985 9.23044375,3.44305977 C8.60590859,2.22127752 7.29140625,0.00521883457 6.14765625,0.00521883457 L6.14765625,0.00521883457 Z" id="Shape" fill="#C23824"></path>
                                <path d="M3.08045234,10.3523102 L4.32966563,13.6020962 C4.3737,13.7166452 4.30254922,13.8081075 4.17154219,13.8054096 C4.17154219,13.8054096 1.83905469,13.5781692 1.83705313,15.6109052 C1.83705313,15.6109052 1.84667969,15.7891417 1.67392578,15.7891417 L0.775319531,15.7891417 C0.644264844,15.7891417 0.4941,15.6979448 0.441630469,15.5864917 C0.441630469,15.5865359 -1.50274453,11.4574206 3.08045234,10.3523102 L3.08045234,10.3523102 Z" id="Shape" fill="#E87E04"></path>
                                <path d="M9.21486016,10.3523102 L7.96564688,13.6020962 C7.9216125,13.7166452 7.99276328,13.8081075 8.12377031,13.8054096 C8.12377031,13.8054096 10.4562578,13.5781692 10.4582594,15.6109052 C10.4582594,15.6109052 10.4486328,15.7891417 10.6213867,15.7891417 L11.519993,15.7891417 C11.6510477,15.7891417 11.8012125,15.6979448 11.853682,15.5864917 C11.853682,15.5865359 13.798057,11.4574206 9.21486016,10.3523102 L9.21486016,10.3523102 Z" id="Shape" fill="#D55400"></path>
                                <ellipse id="Oval" fill="#E94B35" cx="6.13526562" cy="7.22428232" rx="2.24732578" ry="2.08563205"></ellipse>
                                <path d="M6.13531328,8.9041721 C5.13720078,8.9041721 4.32518594,8.150537 4.32518594,7.22428232 C4.32518594,6.29798341 5.13720078,5.54439255 6.13531328,5.54439255 C7.13342578,5.54439255 7.94539297,6.29798341 7.94539297,7.22428232 C7.94544062,8.150537 7.13342578,8.9041721 6.13531328,8.9041721 L6.13531328,8.9041721 Z" id="Shape" fill="#2B3E51"></path>
                                <path d="M6.08508359,8.90302218 L7.94415391,7.17771086 C7.93162031,6.7539238 7.74947813,6.36901264 7.45820313,6.07932309 L4.90163594,8.45194681 C5.21373672,8.72230898 5.62848906,8.89139038 6.08508359,8.90302218 L6.08508359,8.90302218 Z" id="Shape" fill="#33495F"></path>
                                <path d="M4.48750312,7.91816618 L6.8830875,5.69498688 C6.71772031,5.62506335 6.53915234,5.57765156 6.35186328,5.55677622 L4.338625,7.42516323 C4.36102344,7.59902118 4.41215859,7.76465284 4.48750312,7.91816618 L4.48750312,7.91816618 Z" id="Shape" fill="#33495F"></path>
                                <path d="M6.0046875,10.3492143 C5.87310859,10.3492143 5.76640625,10.4481953 5.76640625,10.5703514 L5.76640625,15.5680489 C5.76640625,15.690205 5.87310859,15.7891859 6.0046875,15.7891859 L6.14765625,15.7891859 L6.14765625,10.3492143 L6.0046875,10.3492143 L6.0046875,10.3492143 Z" id="Shape" fill="#E87E04"></path>
                                <path d="M6.24296875,10.3492143 L6.14765625,10.3492143 L6.14765625,15.7891859 L6.24296875,15.7891859 C6.37454766,15.7891859 6.48125,15.690205 6.48125,15.5680489 L6.48125,10.5703514 C6.48125,10.4481953 6.37454766,10.3492143 6.24296875,10.3492143 L6.24296875,10.3492143 Z" id="Shape" fill="#D55400"></path>
                            </g>
                            <g id="Group" opacity="0.5" transform="translate(2.335156, 9.951168)" fill="#ECF0F1">
                                <path d="M0.876684375,0.0937178852 C0.969423438,0.00778402444 1.05930313,0.0360895679 1.07641172,0.156697719 L1.09847656,0.312068616 C1.11558516,0.432676768 1.22514688,0.57650431 1.34185703,0.631788575 L1.49230781,0.702994708 C1.60901797,0.758278972 1.60777891,0.846335749 1.48949609,0.898745231 L1.33704375,0.966192034 C1.21876094,1.01860152 1.10514844,1.15973119 1.08460859,1.27980861 L1.05811172,1.43460455 C1.03752422,1.55468197 0.946929688,1.58082037 0.85666875,1.49258669 L0.740435156,1.37892224 C0.650174219,1.29073278 0.4704625,1.23407747 0.341028125,1.25305103 L0.17423125,1.27750878 C0.044796875,1.29648234 -0.0100078125,1.22452435 0.0525171875,1.11762669 L0.133103906,0.979902532 C0.195628906,0.873004878 0.198154688,0.696891325 0.138727344,0.588445711 L0.06214375,0.448731318 C0.00271640625,0.34037416 0.0595226563,0.269787211 0.188385156,0.291945144 L0.354419531,0.320516052 C0.483282031,0.342673985 0.664566406,0.290485639 0.757305469,0.204551779 L0.876684375,0.0937178852 L0.876684375,0.0937178852 Z" id="Shape"></path>
                            </g>
                            <path d="M5.09821797,4.42614667 C5.11518359,4.30549429 5.20501562,4.27710029 5.29785,4.3629457 L5.44977812,4.50350041 C5.5426125,4.58934582 5.72394453,4.64140148 5.85280703,4.61911087 L6.06368594,4.58262325 C6.19254844,4.56033264 6.24940234,4.63083113 6.19011797,4.73932097 L6.09304219,4.9168498 C6.03371016,5.02533964 6.03647422,5.20149742 6.09909453,5.30830662 L6.20165078,5.48318181 C6.26427109,5.59003524 6.20960937,5.66199323 6.080175,5.64315236 L5.8682,5.61237008 C5.73871797,5.5935292 5.55905391,5.65036143 5.46898359,5.73868357 L5.32143984,5.88321875 C5.23132187,5.97154089 5.14067969,5.94553517 5.11994922,5.82541352 L5.08601797,5.6288669 C5.0652875,5.50874525 4.95153203,5.36774826 4.83320156,5.31551569 L4.63947891,5.22997988 C4.52114844,5.17770308 4.51976641,5.0896463 4.63642891,5.03422935 L4.82743516,4.94351893 C4.94409766,4.88810199 5.05346875,4.74414176 5.07043437,4.62353361 L5.09821797,4.42614667 L5.09821797,4.42614667 Z" id="Shape" fill="#ECF0F1"></path>
                            <path d="M21.2833289,11.8357418 C21.3125422,11.7171682 21.4048523,11.6967793 21.4884891,11.790453 L21.7902961,12.1283504 C21.8739328,12.2219798 22.0491648,12.289692 22.1796953,12.2788563 L22.650682,12.2396266 C22.7812125,12.2287909 22.830632,12.3039332 22.7605297,12.4067177 L22.5075703,12.7773877 C22.4374203,12.8801722 22.4221703,13.055755 22.4736867,13.1676061 L22.6593555,13.5711813 C22.7108242,13.6830324 22.6490617,13.7499042 22.5221055,13.7197854 L22.0639859,13.6110744 C21.936982,13.5809555 21.7523617,13.6217332 21.653618,13.7017406 L21.2974352,13.9903244 C21.1986914,14.0703318 21.1110992,14.0364536 21.1027594,13.9150936 L21.072593,13.4771538 C21.0642531,13.3557495 20.9653664,13.2053763 20.8528977,13.1429715 L20.447057,12.9177655 C20.3345883,12.8553606 20.3422133,12.7675692 20.463975,12.7226784 L20.9035086,12.5607176 C21.025318,12.5158268 21.148843,12.3821273 21.1780563,12.2635536 L21.2833289,11.8357418 L21.2833289,11.8357418 Z" id="Shape" fill="#ECF0F1"></path>
                            <g id="Group" opacity="0.5" transform="translate(18.347656, 5.616881)" fill="#ECF0F1">
                                <path d="M0.851807813,0.0770883784 C0.940448438,-0.0124279027 1.03151953,0.012250993 1.05420391,0.132063051 L1.08498984,0.295041063 C1.10767422,0.414808893 1.22366953,0.554213695 1.34285781,0.604854081 L1.50498438,0.673671934 C1.62417266,0.72431232 1.62698438,0.812324869 1.51117969,0.869334003 L1.35372344,0.946908883 C1.23796641,1.00391802 1.13097813,1.1494262 1.11596641,1.27025549 L1.09552188,1.43460455 C1.08051016,1.55538961 0.991154688,1.5850662 0.896938281,1.50050339 L0.768838281,1.38551212 C0.674621875,1.30094931 0.492432031,1.25145884 0.363998438,1.27556278 L0.189290625,1.30829106 C0.0608570313,1.332395 0.00281171875,1.2626926 0.0603328125,1.15340667 L0.138584375,1.00480256 C0.196153125,0.89551663 0.190529688,0.719447305 0.126146094,0.613478426 L0.0386015625,0.469385519 C-0.0257820312,0.363416641 0.0277359375,0.290706777 0.157503906,0.30773433 L0.334022656,0.330865266 C0.463790625,0.34789282 0.642501563,0.288539633 0.731189844,0.198979125 L0.851807813,0.0770883784 L0.851807813,0.0770883784 Z" id="Shape"></path>
                            </g>
                        </g>
                    </g>
                </g>
            </g>
        </g>
    </g>
</svg>