<?xml version="1.0" encoding="UTF-8" standalone="no"?>
<svg width="25px" height="23px" viewBox="0 0 25 23" version="1.1" xmlns="http://www.w3.org/2000/svg" xmlns:xlink="http://www.w3.org/1999/xlink">
    <!-- Generator: Sketch 41 (35326) - http://www.bohemiancoding.com/sketch -->
    <title>Group 2</title>
    <desc>Created with Sketch.</desc>
    <defs></defs>
    <g id="Page-1" stroke="none" stroke-width="1" fill="none" fill-rule="evenodd">
        <g id="Mobile-Portrait" transform="translate(-24.000000, -1201.000000)">
            <g id="#work" transform="translate(-115.000000, 1149.000000)">
                <g id="telephone" transform="translate(139.156250, 49.365255)">
                    <g id="Group-2" transform="translate(0.000000, 3.000000)">
                        <ellipse id="Oval" fill="#90DFAA" cx="12.2" cy="11.3222174" rx="12.2" ry="11.3222174"></ellipse>
                        <path d="M19.3074059,6.78436233 C19.1479604,6.65880903 18.9063762,6.68122926 18.7807525,6.83368684 L16.0943366,10.0935886 C15.9687129,10.2460462 16.0073663,10.4702485 16.1813069,10.5778657 C16.3310891,10.6720306 16.4808713,10.7572275 16.6354851,10.8334563 L19.718099,7.13411796 C19.5876436,7.01753275 19.4523564,6.89646349 19.3074059,6.78436233 L19.3074059,6.78436233 Z" id="Shape" fill="#FFFFFF"></path>
                        <path d="M11.4945743,19.3396925 C17.1669703,17.2187385 20.0418218,12.1876383 20.800396,10.6675466 C20.8873663,10.5419933 20.9501782,10.4029878 20.9936634,10.2594984 C21.0033267,10.2370781 21.0081584,10.22811 21.0081584,10.22811 L21.0033267,10.223626 C21.2545743,9.33130073 20.7569109,8.13854437 19.7132673,7.138602 L16.6306535,10.8379404 C17.0558416,11.0576586 17.4906931,11.2235683 17.9110495,11.3267014 C16.7417822,12.9454422 14.8815842,15.0394919 12.2386535,16.6761689 C12.1226931,16.2681206 11.9390891,15.8466203 11.6878416,15.429604 L7.69687129,18.2949097 C8.95794059,19.4383415 10.5040792,19.8867462 11.4945743,19.3396925 L11.4945743,19.3396925 Z" id="Shape" fill="#324A5E"></path>
                        <g id="Group" transform="translate(4.493465, 6.367346)" fill="#FFFFFF">
                            <path d="M7.19437624,9.06225794 C7.11223762,8.9322206 7.02526733,8.7976992 6.93346535,8.66766185 C6.81750495,8.50623618 6.57592079,8.47036381 6.41164356,8.58694902 L2.8990099,11.0800789 C2.73473267,11.1966641 2.70574257,11.4253504 2.84586139,11.5688399 C2.96182178,11.6943932 3.08261386,11.8109784 3.20823762,11.9230796 L7.19437624,9.06225794 L7.19437624,9.06225794 Z" id="Shape"></path>
                            <path d="M8.73085149,0.0179361859 L0.376871287,0.0179361859 C0.188435644,0.0179361859 0.0386534653,0.156941627 0.0386534653,0.33181944 L0.0386534653,5.51537718 C0.0386534653,5.69025499 0.188435644,5.82926043 0.376871287,5.82926043 L5.98162376,5.82926043 L8.72118812,7.59597474 L8.00609901,5.82926043 L8.73085149,5.82926043 C8.91928713,5.82926043 9.06906931,5.69025499 9.06906931,5.51537718 L9.06906931,0.33181944 C9.06906931,0.156941627 8.91445545,0.0179361859 8.73085149,0.0179361859 L8.73085149,0.0179361859 Z" id="Shape"></path>
                        </g>
                        <g id="Group" transform="translate(5.749703, 8.564529)" fill="#FF7058">
                            <rect id="Rectangle-path" x="0.0193267327" y="0" width="1.3190495" height="1.22414469"></rect>
                            <rect id="Rectangle-path" x="2.39651485" y="0" width="1.3190495" height="1.22414469"></rect>
                            <rect id="Rectangle-path" x="4.77370297" y="0" width="1.3190495" height="1.22414469"></rect>
                        </g>
                    </g>
                </g>
            </g>
        </g>
    </g>
</svg>