<?xml version="1.0" encoding="UTF-8" standalone="no"?>
<svg width="25px" height="24px" viewBox="0 0 25 24" version="1.1" xmlns="http://www.w3.org/2000/svg" xmlns:xlink="http://www.w3.org/1999/xlink">
    <!-- Generator: Sketch 41 (35326) - http://www.bohemiancoding.com/sketch -->
    <title>Group</title>
    <desc>Created with Sketch.</desc>
    <defs></defs>
    <g id="Page-1" stroke="none" stroke-width="1" fill="none" fill-rule="evenodd">
        <g id="Mobile-Portrait" transform="translate(-26.000000, -1333.000000)">
            <g id="#work" transform="translate(-115.000000, 1149.000000)">
                <g id="wrench" transform="translate(141.443750, 184.693671)">
                    <g id="Group" transform="translate(-0.000000, 0.000000)">
                        <g transform="translate(2.907031, 2.742100)" id="Shape" fill="#C3C7CB">
                            <path d="M11.0404281,8.55813683 L13.7328633,6.05942076 C15.163218,4.73197922 16.6776859,3.59975749 18.4866695,2.74086115 L18.4445891,2.74086115 C17.519057,2.74086115 16.5935727,2.31141299 16.0466695,1.53053381 C15.7101211,1.06203284 15.5418469,0.554479059 15.5418469,0.0469252837 L15.4997664,0.00787247927 C14.5742344,1.6867008 13.3542344,3.09220371 11.9239273,4.41964524 L9.23149219,6.91836132 L11.0404281,8.55813683 L11.0404281,8.55813683 Z"></path>
                            <path d="M7.46458906,8.55813683 L4.77215391,11.0568529 C3.63631484,12.110969 1.61697656,13.399402 0.0183476563,14.3754125 L0.060428125,14.4144653 C0.985960156,14.4144653 1.91144453,14.8439135 2.50042813,15.6247927 C2.83697656,16.0542408 2.96317031,16.6008474 3.00525078,17.1084012 L3.04733125,17.147454 C4.09905703,15.6638455 5.48733125,13.7898416 6.62317031,12.7356812 L9.31560547,10.2369651 L7.46458906,8.55813683 L7.46458906,8.55813683 Z"></path>
                        </g>
                        <path d="M5.91232969,2.75001623 L5.91232969,2.75001623 C5.87024922,3.64796536 5.40750703,4.46785312 4.56613594,5.0144597 C4.10339375,5.32679368 3.55649062,5.48296067 2.96750703,5.48296067 L2.92542656,5.52201348 C4.73441016,6.38095404 6.24887812,7.51317577 7.67923281,8.84057308 L14.8309586,15.4777365 C15.9667977,16.5318969 17.3551195,18.4059008 18.4067977,19.8895093 L18.4488781,19.8504565 C18.4488781,18.9915159 18.9116203,18.1326196 19.7530391,17.586013 C20.2157812,17.273679 20.8047648,17.1565648 21.351668,17.117512 L21.3937484,17.0784592 C19.7951195,16.1024045 17.7758289,14.8140157 16.6399422,13.7598996 L9.48816875,7.12269196 C8.05781406,5.83430323 6.87989453,4.42880032 5.91232969,2.75001623" id="Shape" fill="#E0E0E0"></path>
                        <g id="Shape" fill="#C3C7CB">
                            <path d="M2.63091094,0.0170275535 L3.93507187,2.12530404 L3.85091094,2.32052383 C3.5143625,2.9842446 2.75715234,3.37468419 1.99989453,3.33563138 L1.78953984,3.33563138 L0.485426562,1.2664077 C-0.355944531,2.43768225 -0.103557031,4.11646634 1.24268437,5.0144597 C2.21024922,5.67818047 3.55649062,5.67818047 4.56613594,5.05351251 C6.16476484,4.03840495 6.29095859,2.04728688 5.02887812,0.836959537 C4.35573359,0.212247348 3.5143625,-0.061033828 2.63091094,0.0170275535"></path>
                            <path d="M21.6881688,22.5834009 L20.3840078,20.4751244 L20.4681688,20.2799046 C20.8047172,19.6161839 21.561975,19.2257443 22.3191852,19.2647971 L22.5295398,19.2647971 L23.7916203,21.3340208 C24.6329914,20.1627462 24.3806039,18.4839621 23.0343625,17.5859688 C22.0667977,16.922248 20.7205563,16.922248 19.7109109,17.546916 C18.112282,18.5620235 17.9860883,20.5531416 19.2481688,21.7634689 C19.9633461,22.3881811 20.8467977,22.6614623 21.6881688,22.5834009"></path>
                        </g>
                        <g transform="translate(0.000000, 0.044227)" id="Shape" fill="#E0E0E0">
                            <path d="M24.3385234,2.43246341 L22.0667977,3.64279076 L21.856443,3.56468515 C21.1412656,3.25235117 20.7205562,2.5495776 20.8047172,1.84684825 L20.8047172,1.65162846 L23.0343625,0.480353918 C21.772282,-0.300481034 19.9633461,-0.0662526626 18.9957336,1.18312749 C18.2805562,2.08107663 18.2805562,3.33045678 18.9536531,4.26745872 C20.0474594,5.75106724 22.1929437,5.86818143 23.4971047,4.69690689 C24.1281687,4.03318612 24.4226367,3.21329836 24.3385234,2.43246341"></path>
                            <path d="M0.0226367188,20.118563 L2.2943625,18.9082357 L2.50471719,18.9863413 C3.21989453,19.2986753 3.64055625,20.0014489 3.59852344,20.7041782 L3.59852344,20.899398 L1.36887813,22.0706725 C2.63095859,22.8515075 4.43989453,22.6172791 5.40750703,21.367899 C6.12268438,20.4699498 6.12268438,19.2205697 5.4495875,18.2835677 C4.35578125,16.7999592 2.21029688,16.682845 0.906135938,17.8541196 C0.190910938,18.4787875 -0.0614765625,19.2986753 0.0226367188,20.118563"></path>
                            <path d="M6.12263672,15.0430695 L6.79573359,15.6677375 C6.87989453,15.7458431 7.00608828,15.7848517 7.09020156,15.7848517 C7.17431484,15.7848517 7.30055625,15.7457989 7.38466953,15.6677375 C7.55294375,15.5115705 7.55294375,15.2772979 7.38466953,15.1211309 L6.75365313,14.5355157 C6.54329844,14.6916827 6.33294375,14.8478497 6.08055625,15.0040167 L6.12263672,15.0430695"></path>
                            <path d="M4.77644297,16.0191243 L5.61781406,16.7999592 C5.701975,16.8780648 5.82816875,16.9170734 5.91228203,16.9170734 C6.03847578,16.9170734 6.12263672,16.8780206 6.20675,16.7999592 C6.37502422,16.6437922 6.37502422,16.4095196 6.20675,16.2533526 L5.40745937,15.5115705 C5.19710469,15.6677375 4.94471719,15.8239045 4.7343625,15.9800715 C4.7343625,15.9800715 4.77644297,15.9800715 4.77644297,16.0191243"></path>
                        </g>
                        <g transform="translate(15.678906, 15.568049)" id="Shape" fill="#C3C7CB">
                            <path d="M0.666520312,0.143915997 L0.0355039062,0.729531155 C0.203778125,0.924750949 0.372052344,1.11997074 0.540326562,1.35419912 C0.540326562,1.35419912 0.582407031,1.35419912 0.582407031,1.31514631 L1.25550391,0.69047835 C1.42377812,0.53431136 1.42377812,0.30003876 1.25550391,0.14387177 C1.08718203,-0.012250993 0.834794531,-0.012250993 0.666520312,0.143915997"></path>
                            <path d="M1.84443984,1.27613773 L1.04514922,2.01791988 C1.21342344,2.21313968 1.38169766,2.44736805 1.54997187,2.64258784 L1.59205234,2.60353504 L2.43342344,1.82270009 C2.60169766,1.6665331 2.60169766,1.4322605 2.43342344,1.27609351 C2.26510156,1.11997074 2.01271406,1.11997074 1.84443984,1.27613773"></path>
                        </g>
                    </g>
                </g>
            </g>
        </g>
    </g>
</svg>