<?xml version="1.0" encoding="utf-8"?>
<!-- Generator: Adobe Illustrator 19.0.0, SVG Export Plug-In . SVG Version: 6.00 Build 0)  -->
<svg version="1.1" id="Слой_1" xmlns="http://www.w3.org/2000/svg" xmlns:xlink="http://www.w3.org/1999/xlink" x="0px" y="0px"
	 viewBox="0 0 77 77" style="enable-background:new 0 0 77 77;" xml:space="preserve">
<style type="text/css">
	.st0{fill:#D63D1B;}
</style>
<path class="st0" d="M70.6,19.4L55.8,7l-4.1,4.9l14.7,12.4L70.6,19.4z M25.3,11.9L21.2,7L6.4,19.3l4.1,4.9
	C10.5,24.2,25.3,11.9,25.3,11.9z M40.1,26.7h-4.8v19.3l15.2,9.2l2.4-4l-12.8-7.6V26.7z M38.5,13.8c-16,0-28.9,12.9-28.9,28.9
	s12.9,28.9,28.9,28.9s28.9-12.9,28.9-28.9S54.4,13.8,38.5,13.8z M38.5,65.2C26.1,65.2,16,55.1,16,42.7s10.1-22.5,22.5-22.5
	S61,30.3,61,42.7S50.9,65.2,38.5,65.2z"/>
</svg>
